<svg width="140" height="20" viewBox="0 0 140 20" fill="none" xmlns="http://www.w3.org/2000/svg">
<path fill-rule="evenodd" clip-rule="evenodd" d="M9.9974 1.66797C14.5997 1.66797 18.3307 5.39893 18.3307 10.0013C18.3307 14.6036 14.5997 18.3346 9.9974 18.3346C5.39502 18.3346 1.66406 14.6036 1.66406 10.0013C1.66406 5.39893 5.3951 1.66797 9.9974 1.66797ZM9.9974 3.33464V10.0014H16.6641C16.6641 6.31945 13.6793 3.33464 9.9974 3.33464Z" fill="#02CACD"/>
<path d="M34.072 5.636V6.524H31.792V14H30.7V6.524H28.408V5.636H34.072ZM38.2842 14.108C37.6682 14.108 37.1082 13.968 36.6042 13.688C36.1082 13.408 35.7162 13.012 35.4282 12.5C35.1482 11.98 35.0082 11.38 35.0082 10.7C35.0082 10.028 35.1522 9.436 35.4402 8.924C35.7362 8.404 36.1362 8.008 36.6402 7.736C37.1442 7.456 37.7082 7.316 38.3322 7.316C38.9562 7.316 39.5202 7.456 40.0242 7.736C40.5282 8.008 40.9242 8.4 41.2122 8.912C41.5082 9.424 41.6562 10.02 41.6562 10.7C41.6562 11.38 41.5042 11.98 41.2002 12.5C40.9042 13.012 40.5002 13.408 39.9882 13.688C39.4762 13.968 38.9082 14.108 38.2842 14.108ZM38.2842 13.148C38.6762 13.148 39.0442 13.056 39.3882 12.872C39.7322 12.688 40.0082 12.412 40.2162 12.044C40.4322 11.676 40.5402 11.228 40.5402 10.7C40.5402 10.172 40.4362 9.724 40.2282 9.356C40.0202 8.988 39.7482 8.716 39.4122 8.54C39.0762 8.356 38.7122 8.264 38.3202 8.264C37.9202 8.264 37.5522 8.356 37.2162 8.54C36.8882 8.716 36.6242 8.988 36.4242 9.356C36.2242 9.724 36.1242 10.172 36.1242 10.7C36.1242 11.236 36.2202 11.688 36.4122 12.056C36.6122 12.424 36.8762 12.7 37.2042 12.884C37.5322 13.06 37.8922 13.148 38.2842 13.148ZM44.424 8.324V12.2C44.424 12.52 44.492 12.748 44.628 12.884C44.764 13.012 45 13.076 45.336 13.076H46.14V14H45.156C44.548 14 44.092 13.86 43.788 13.58C43.484 13.3 43.332 12.84 43.332 12.2V8.324H42.48V7.424H43.332V5.768H44.424V7.424H46.14V8.324H44.424ZM47.0551 10.688C47.0551 10.016 47.1911 9.428 47.4631 8.924C47.7351 8.412 48.1071 8.016 48.5791 7.736C49.0591 7.456 49.5911 7.316 50.1751 7.316C50.7511 7.316 51.2511 7.44 51.6751 7.688C52.0991 7.936 52.4151 8.248 52.6231 8.624V7.424H53.7271V14H52.6231V12.776C52.4071 13.16 52.0831 13.48 51.6511 13.736C51.2271 13.984 50.7311 14.108 50.1631 14.108C49.5791 14.108 49.0511 13.964 48.5791 13.676C48.1071 13.388 47.7351 12.984 47.4631 12.464C47.1911 11.944 47.0551 11.352 47.0551 10.688ZM52.6231 10.7C52.6231 10.204 52.5231 9.772 52.3231 9.404C52.1231 9.036 51.8511 8.756 51.5071 8.564C51.1711 8.364 50.7991 8.264 50.3911 8.264C49.9831 8.264 49.6111 8.36 49.2751 8.552C48.9391 8.744 48.6711 9.024 48.4711 9.392C48.2711 9.76 48.1711 10.192 48.1711 10.688C48.1711 11.192 48.2711 11.632 48.4711 12.008C48.6711 12.376 48.9391 12.66 49.2751 12.86C49.6111 13.052 49.9831 13.148 50.3911 13.148C50.7991 13.148 51.1711 13.052 51.5071 12.86C51.8511 12.66 52.1231 12.376 52.3231 12.008C52.5231 11.632 52.6231 11.196 52.6231 10.7ZM56.6644 5.12V14H55.5724V5.12H56.6644ZM64.3288 5.636C65.2408 5.636 66.0288 5.808 66.6928 6.152C67.3648 6.488 67.8768 6.972 68.2288 7.604C68.5888 8.236 68.7688 8.98 68.7688 9.836C68.7688 10.692 68.5888 11.436 68.2288 12.068C67.8768 12.692 67.3648 13.172 66.6928 13.508C66.0288 13.836 65.2408 14 64.3288 14H61.7248V5.636H64.3288ZM64.3288 13.1C65.4088 13.1 66.2328 12.816 66.8008 12.248C67.3688 11.672 67.6528 10.868 67.6528 9.836C67.6528 8.796 67.3648 7.984 66.7888 7.4C66.2208 6.816 65.4008 6.524 64.3288 6.524H62.8168V13.1H64.3288ZM76.2092 10.46C76.2092 10.668 76.1972 10.888 76.1732 11.12H70.9172C70.9572 11.768 71.1772 12.276 71.5772 12.644C71.9852 13.004 72.4772 13.184 73.0532 13.184C73.5252 13.184 73.9172 13.076 74.2292 12.86C74.5492 12.636 74.7732 12.34 74.9012 11.972H76.0772C75.9012 12.604 75.5492 13.12 75.0212 13.52C74.4932 13.912 73.8372 14.108 73.0532 14.108C72.4292 14.108 71.8692 13.968 71.3732 13.688C70.8852 13.408 70.5012 13.012 70.2212 12.5C69.9412 11.98 69.8012 11.38 69.8012 10.7C69.8012 10.02 69.9372 9.424 70.2092 8.912C70.4812 8.4 70.8612 8.008 71.3492 7.736C71.8452 7.456 72.4132 7.316 73.0532 7.316C73.6772 7.316 74.2292 7.452 74.7092 7.724C75.1892 7.996 75.5572 8.372 75.8132 8.852C76.0772 9.324 76.2092 9.86 76.2092 10.46ZM75.0812 10.232C75.0812 9.816 74.9892 9.46 74.8052 9.164C74.6212 8.86 74.3692 8.632 74.0492 8.48C73.7372 8.32 73.3892 8.24 73.0052 8.24C72.4532 8.24 71.9812 8.416 71.5892 8.768C71.2052 9.12 70.9852 9.608 70.9292 10.232H75.0812ZM78.7426 8.636C78.9586 8.26 79.2786 7.948 79.7026 7.7C80.1346 7.444 80.6346 7.316 81.2026 7.316C81.7866 7.316 82.3146 7.456 82.7866 7.736C83.2666 8.016 83.6426 8.412 83.9146 8.924C84.1866 9.428 84.3226 10.016 84.3226 10.688C84.3226 11.352 84.1866 11.944 83.9146 12.464C83.6426 12.984 83.2666 13.388 82.7866 13.676C82.3146 13.964 81.7866 14.108 81.2026 14.108C80.6426 14.108 80.1466 13.984 79.7146 13.736C79.2906 13.48 78.9666 13.164 78.7426 12.788V17.12H77.6506V7.424H78.7426V8.636ZM83.2066 10.688C83.2066 10.192 83.1066 9.76 82.9066 9.392C82.7066 9.024 82.4346 8.744 82.0906 8.552C81.7546 8.36 81.3826 8.264 80.9746 8.264C80.5746 8.264 80.2026 8.364 79.8586 8.564C79.5226 8.756 79.2506 9.04 79.0426 9.416C78.8426 9.784 78.7426 10.212 78.7426 10.7C78.7426 11.196 78.8426 11.632 79.0426 12.008C79.2506 12.376 79.5226 12.66 79.8586 12.86C80.2026 13.052 80.5746 13.148 80.9746 13.148C81.3826 13.148 81.7546 13.052 82.0906 12.86C82.4346 12.66 82.7066 12.376 82.9066 12.008C83.1066 11.632 83.2066 11.192 83.2066 10.688ZM85.3519 10.688C85.3519 10.016 85.4879 9.428 85.7599 8.924C86.0319 8.412 86.4039 8.016 86.8759 7.736C87.3559 7.456 87.8879 7.316 88.4719 7.316C89.0479 7.316 89.5479 7.44 89.9719 7.688C90.3959 7.936 90.7119 8.248 90.9199 8.624V7.424H92.0239V14H90.9199V12.776C90.7039 13.16 90.3799 13.48 89.9479 13.736C89.5239 13.984 89.0279 14.108 88.4599 14.108C87.8759 14.108 87.3479 13.964 86.8759 13.676C86.4039 13.388 86.0319 12.984 85.7599 12.464C85.4879 11.944 85.3519 11.352 85.3519 10.688ZM90.9199 10.7C90.9199 10.204 90.8199 9.772 90.6199 9.404C90.4199 9.036 90.1479 8.756 89.8039 8.564C89.4679 8.364 89.0959 8.264 88.6879 8.264C88.2799 8.264 87.9079 8.36 87.5719 8.552C87.2359 8.744 86.9679 9.024 86.7679 9.392C86.5679 9.76 86.4679 10.192 86.4679 10.688C86.4679 11.192 86.5679 11.632 86.7679 12.008C86.9679 12.376 87.2359 12.66 87.5719 12.86C87.9079 13.052 88.2799 13.148 88.6879 13.148C89.0959 13.148 89.4679 13.052 89.8039 12.86C90.1479 12.66 90.4199 12.376 90.6199 12.008C90.8199 11.632 90.9199 11.196 90.9199 10.7ZM94.9613 8.492C95.1533 8.116 95.4253 7.824 95.7773 7.616C96.1373 7.408 96.5733 7.304 97.0853 7.304V8.432H96.7973C95.5733 8.432 94.9613 9.096 94.9613 10.424V14H93.8693V7.424H94.9613V8.492ZM99.6779 8.324V12.2C99.6779 12.52 99.7459 12.748 99.8819 12.884C100.018 13.012 100.254 13.076 100.59 13.076H101.394V14H100.41C99.8019 14 99.3459 13.86 99.0419 13.58C98.7379 13.3 98.5859 12.84 98.5859 12.2V8.324H97.7339V7.424H98.5859V5.768H99.6779V7.424H101.394V8.324H99.6779ZM110.625 7.304C111.137 7.304 111.593 7.412 111.993 7.628C112.393 7.836 112.709 8.152 112.941 8.576C113.173 9 113.289 9.516 113.289 10.124V14H112.209V10.28C112.209 9.624 112.045 9.124 111.717 8.78C111.397 8.428 110.961 8.252 110.409 8.252C109.841 8.252 109.389 8.436 109.053 8.804C108.717 9.164 108.549 9.688 108.549 10.376V14H107.469V10.28C107.469 9.624 107.305 9.124 106.977 8.78C106.657 8.428 106.221 8.252 105.669 8.252C105.101 8.252 104.649 8.436 104.313 8.804C103.977 9.164 103.809 9.688 103.809 10.376V14H102.717V7.424H103.809V8.372C104.025 8.028 104.313 7.764 104.673 7.58C105.041 7.396 105.445 7.304 105.885 7.304C106.437 7.304 106.925 7.428 107.349 7.676C107.773 7.924 108.089 8.288 108.297 8.768C108.481 8.304 108.785 7.944 109.209 7.688C109.633 7.432 110.105 7.304 110.625 7.304ZM121.08 10.46C121.08 10.668 121.068 10.888 121.044 11.12H115.788C115.828 11.768 116.048 12.276 116.448 12.644C116.856 13.004 117.348 13.184 117.924 13.184C118.396 13.184 118.788 13.076 119.1 12.86C119.42 12.636 119.644 12.34 119.772 11.972H120.948C120.772 12.604 120.42 13.12 119.892 13.52C119.364 13.912 118.708 14.108 117.924 14.108C117.3 14.108 116.74 13.968 116.244 13.688C115.756 13.408 115.372 13.012 115.092 12.5C114.812 11.98 114.672 11.38 114.672 10.7C114.672 10.02 114.808 9.424 115.08 8.912C115.352 8.4 115.732 8.008 116.22 7.736C116.716 7.456 117.284 7.316 117.924 7.316C118.548 7.316 119.1 7.452 119.58 7.724C120.06 7.996 120.428 8.372 120.684 8.852C120.948 9.324 121.08 9.86 121.08 10.46ZM119.952 10.232C119.952 9.816 119.86 9.46 119.676 9.164C119.492 8.86 119.24 8.632 118.92 8.48C118.608 8.32 118.26 8.24 117.876 8.24C117.324 8.24 116.852 8.416 116.46 8.768C116.076 9.12 115.856 9.608 115.8 10.232H119.952ZM125.726 7.304C126.526 7.304 127.174 7.548 127.67 8.036C128.166 8.516 128.414 9.212 128.414 10.124V14H127.334V10.28C127.334 9.624 127.17 9.124 126.842 8.78C126.514 8.428 126.066 8.252 125.498 8.252C124.922 8.252 124.462 8.432 124.118 8.792C123.782 9.152 123.614 9.676 123.614 10.364V14H122.522V7.424H123.614V8.36C123.83 8.024 124.122 7.764 124.49 7.58C124.866 7.396 125.278 7.304 125.726 7.304ZM131.529 8.324V12.2C131.529 12.52 131.597 12.748 131.733 12.884C131.869 13.012 132.105 13.076 132.441 13.076H133.245V14H132.261C131.653 14 131.197 13.86 130.893 13.58C130.589 13.3 130.437 12.84 130.437 12.2V8.324H129.585V7.424H130.437V5.768H131.529V7.424H133.245V8.324H131.529ZM136.897 14.108C136.393 14.108 135.941 14.024 135.541 13.856C135.141 13.68 134.825 13.44 134.593 13.136C134.361 12.824 134.233 12.468 134.209 12.068H135.337C135.369 12.396 135.521 12.664 135.793 12.872C136.073 13.08 136.437 13.184 136.885 13.184C137.301 13.184 137.629 13.092 137.869 12.908C138.109 12.724 138.229 12.492 138.229 12.212C138.229 11.924 138.101 11.712 137.845 11.576C137.589 11.432 137.193 11.292 136.657 11.156C136.169 11.028 135.769 10.9 135.457 10.772C135.153 10.636 134.889 10.44 134.665 10.184C134.449 9.92 134.341 9.576 134.341 9.152C134.341 8.816 134.441 8.508 134.641 8.228C134.841 7.948 135.125 7.728 135.493 7.568C135.861 7.4 136.281 7.316 136.753 7.316C137.481 7.316 138.069 7.5 138.517 7.868C138.965 8.236 139.205 8.74 139.237 9.38H138.145C138.121 9.036 137.981 8.76 137.725 8.552C137.477 8.344 137.141 8.24 136.717 8.24C136.325 8.24 136.013 8.324 135.781 8.492C135.549 8.66 135.433 8.88 135.433 9.152C135.433 9.368 135.501 9.548 135.637 9.692C135.781 9.828 135.957 9.94 136.165 10.028C136.381 10.108 136.677 10.2 137.053 10.304C137.525 10.432 137.909 10.56 138.205 10.688C138.501 10.808 138.753 10.992 138.961 11.24C139.177 11.488 139.289 11.812 139.297 12.212C139.297 12.572 139.197 12.896 138.997 13.184C138.797 13.472 138.513 13.7 138.145 13.868C137.785 14.028 137.369 14.108 136.897 14.108Z" fill="#8491A5"/>
</svg>
