<svg width="165" height="20" viewBox="0 0 165 20" fill="none" xmlns="http://www.w3.org/2000/svg">
<path fill-rule="evenodd" clip-rule="evenodd" d="M9.9974 1.66797C14.5997 1.66797 18.3307 5.39893 18.3307 10.0013C18.3307 14.6036 14.5997 18.3346 9.9974 18.3346C5.39502 18.3346 1.66406 14.6036 1.66406 10.0013C1.66406 5.39893 5.3951 1.66797 9.9974 1.66797ZM9.9974 3.33464V10.0014H16.6641C16.6641 6.31945 13.6793 3.33464 9.9974 3.33464Z" fill="#FCBD44"/>
<path d="M34.072 5.636V6.524H31.792V14H30.7V6.524H28.408V5.636H34.072ZM38.2842 14.108C37.6682 14.108 37.1082 13.968 36.6042 13.688C36.1082 13.408 35.7162 13.012 35.4282 12.5C35.1482 11.98 35.0082 11.38 35.0082 10.7C35.0082 10.028 35.1522 9.436 35.4402 8.924C35.7362 8.404 36.1362 8.008 36.6402 7.736C37.1442 7.456 37.7082 7.316 38.3322 7.316C38.9562 7.316 39.5202 7.456 40.0242 7.736C40.5282 8.008 40.9242 8.4 41.2122 8.912C41.5082 9.424 41.6562 10.02 41.6562 10.7C41.6562 11.38 41.5042 11.98 41.2002 12.5C40.9042 13.012 40.5002 13.408 39.9882 13.688C39.4762 13.968 38.9082 14.108 38.2842 14.108ZM38.2842 13.148C38.6762 13.148 39.0442 13.056 39.3882 12.872C39.7322 12.688 40.0082 12.412 40.2162 12.044C40.4322 11.676 40.5402 11.228 40.5402 10.7C40.5402 10.172 40.4362 9.724 40.2282 9.356C40.0202 8.988 39.7482 8.716 39.4122 8.54C39.0762 8.356 38.7122 8.264 38.3202 8.264C37.9202 8.264 37.5522 8.356 37.2162 8.54C36.8882 8.716 36.6242 8.988 36.4242 9.356C36.2242 9.724 36.1242 10.172 36.1242 10.7C36.1242 11.236 36.2202 11.688 36.4122 12.056C36.6122 12.424 36.8762 12.7 37.2042 12.884C37.5322 13.06 37.8922 13.148 38.2842 13.148ZM44.424 8.324V12.2C44.424 12.52 44.492 12.748 44.628 12.884C44.764 13.012 45 13.076 45.336 13.076H46.14V14H45.156C44.548 14 44.092 13.86 43.788 13.58C43.484 13.3 43.332 12.84 43.332 12.2V8.324H42.48V7.424H43.332V5.768H44.424V7.424H46.14V8.324H44.424ZM47.0551 10.688C47.0551 10.016 47.1911 9.428 47.4631 8.924C47.7351 8.412 48.1071 8.016 48.5791 7.736C49.0591 7.456 49.5911 7.316 50.1751 7.316C50.7511 7.316 51.2511 7.44 51.6751 7.688C52.0991 7.936 52.4151 8.248 52.6231 8.624V7.424H53.7271V14H52.6231V12.776C52.4071 13.16 52.0831 13.48 51.6511 13.736C51.2271 13.984 50.7311 14.108 50.1631 14.108C49.5791 14.108 49.0511 13.964 48.5791 13.676C48.1071 13.388 47.7351 12.984 47.4631 12.464C47.1911 11.944 47.0551 11.352 47.0551 10.688ZM52.6231 10.7C52.6231 10.204 52.5231 9.772 52.3231 9.404C52.1231 9.036 51.8511 8.756 51.5071 8.564C51.1711 8.364 50.7991 8.264 50.3911 8.264C49.9831 8.264 49.6111 8.36 49.2751 8.552C48.9391 8.744 48.6711 9.024 48.4711 9.392C48.2711 9.76 48.1711 10.192 48.1711 10.688C48.1711 11.192 48.2711 11.632 48.4711 12.008C48.6711 12.376 48.9391 12.66 49.2751 12.86C49.6111 13.052 49.9831 13.148 50.3911 13.148C50.7991 13.148 51.1711 13.052 51.5071 12.86C51.8511 12.66 52.1231 12.376 52.3231 12.008C52.5231 11.632 52.6231 11.196 52.6231 10.7ZM56.6644 5.12V14H55.5724V5.12H56.6644ZM66.1288 14L64.1368 10.58H62.8168V14H61.7248V5.636H64.4248C65.0568 5.636 65.5888 5.744 66.0208 5.96C66.4608 6.176 66.7888 6.468 67.0048 6.836C67.2208 7.204 67.3288 7.624 67.3288 8.096C67.3288 8.672 67.1608 9.18 66.8248 9.62C66.4968 10.06 66.0008 10.352 65.3368 10.496L67.4368 14H66.1288ZM62.8168 9.704H64.4248C65.0168 9.704 65.4608 9.56 65.7568 9.272C66.0528 8.976 66.2008 8.584 66.2008 8.096C66.2008 7.6 66.0528 7.216 65.7568 6.944C65.4688 6.672 65.0248 6.536 64.4248 6.536H62.8168V9.704ZM75.0256 10.46C75.0256 10.668 75.0136 10.888 74.9896 11.12H69.7336C69.7736 11.768 69.9936 12.276 70.3936 12.644C70.8016 13.004 71.2936 13.184 71.8696 13.184C72.3416 13.184 72.7336 13.076 73.0456 12.86C73.3656 12.636 73.5896 12.34 73.7176 11.972H74.8936C74.7176 12.604 74.3656 13.12 73.8376 13.52C73.3096 13.912 72.6536 14.108 71.8696 14.108C71.2456 14.108 70.6856 13.968 70.1896 13.688C69.7016 13.408 69.3176 13.012 69.0376 12.5C68.7576 11.98 68.6176 11.38 68.6176 10.7C68.6176 10.02 68.7536 9.424 69.0256 8.912C69.2976 8.4 69.6776 8.008 70.1656 7.736C70.6616 7.456 71.2296 7.316 71.8696 7.316C72.4936 7.316 73.0456 7.452 73.5256 7.724C74.0056 7.996 74.3736 8.372 74.6296 8.852C74.8936 9.324 75.0256 9.86 75.0256 10.46ZM73.8976 10.232C73.8976 9.816 73.8056 9.46 73.6216 9.164C73.4376 8.86 73.1856 8.632 72.8656 8.48C72.5536 8.32 72.2056 8.24 71.8216 8.24C71.2696 8.24 70.7976 8.416 70.4056 8.768C70.0216 9.12 69.8016 9.608 69.7456 10.232H73.8976ZM78.795 14.108C78.291 14.108 77.839 14.024 77.439 13.856C77.039 13.68 76.723 13.44 76.491 13.136C76.259 12.824 76.131 12.468 76.107 12.068H77.235C77.267 12.396 77.419 12.664 77.691 12.872C77.971 13.08 78.335 13.184 78.783 13.184C79.199 13.184 79.527 13.092 79.767 12.908C80.007 12.724 80.127 12.492 80.127 12.212C80.127 11.924 79.999 11.712 79.743 11.576C79.487 11.432 79.091 11.292 78.555 11.156C78.067 11.028 77.667 10.9 77.355 10.772C77.051 10.636 76.787 10.44 76.563 10.184C76.347 9.92 76.239 9.576 76.239 9.152C76.239 8.816 76.339 8.508 76.539 8.228C76.739 7.948 77.023 7.728 77.391 7.568C77.759 7.4 78.179 7.316 78.651 7.316C79.379 7.316 79.967 7.5 80.415 7.868C80.863 8.236 81.103 8.74 81.135 9.38H80.043C80.019 9.036 79.879 8.76 79.623 8.552C79.375 8.344 79.039 8.24 78.615 8.24C78.223 8.24 77.911 8.324 77.679 8.492C77.447 8.66 77.331 8.88 77.331 9.152C77.331 9.368 77.399 9.548 77.535 9.692C77.679 9.828 77.855 9.94 78.063 10.028C78.279 10.108 78.575 10.2 78.951 10.304C79.423 10.432 79.807 10.56 80.103 10.688C80.399 10.808 80.651 10.992 80.859 11.24C81.075 11.488 81.187 11.812 81.195 12.212C81.195 12.572 81.095 12.896 80.895 13.184C80.695 13.472 80.411 13.7 80.043 13.868C79.683 14.028 79.267 14.108 78.795 14.108ZM88.5685 7.424V14H87.4765V13.028C87.2685 13.364 86.9765 13.628 86.6005 13.82C86.2325 14.004 85.8245 14.096 85.3765 14.096C84.8645 14.096 84.4045 13.992 83.9965 13.784C83.5885 13.568 83.2645 13.248 83.0245 12.824C82.7925 12.4 82.6765 11.884 82.6765 11.276V7.424H83.7565V11.132C83.7565 11.78 83.9205 12.28 84.2485 12.632C84.5765 12.976 85.0245 13.148 85.5925 13.148C86.1765 13.148 86.6365 12.968 86.9725 12.608C87.3085 12.248 87.4765 11.724 87.4765 11.036V7.424H88.5685ZM91.5043 5.12V14H90.4123V5.12H91.5043ZM94.6974 8.324V12.2C94.6974 12.52 94.7654 12.748 94.9014 12.884C95.0374 13.012 95.2734 13.076 95.6094 13.076H96.4134V14H95.4294C94.8214 14 94.3654 13.86 94.0614 13.58C93.7574 13.3 93.6054 12.84 93.6054 12.2V8.324H92.7534V7.424H93.6054V5.768H94.6974V7.424H96.4134V8.324H94.6974ZM100.065 14.108C99.5605 14.108 99.1085 14.024 98.7085 13.856C98.3085 13.68 97.9925 13.44 97.7605 13.136C97.5285 12.824 97.4005 12.468 97.3765 12.068H98.5045C98.5365 12.396 98.6885 12.664 98.9605 12.872C99.2405 13.08 99.6045 13.184 100.053 13.184C100.469 13.184 100.797 13.092 101.037 12.908C101.277 12.724 101.397 12.492 101.397 12.212C101.397 11.924 101.269 11.712 101.013 11.576C100.757 11.432 100.361 11.292 99.8245 11.156C99.3365 11.028 98.9365 10.9 98.6245 10.772C98.3205 10.636 98.0565 10.44 97.8325 10.184C97.6165 9.92 97.5085 9.576 97.5085 9.152C97.5085 8.816 97.6085 8.508 97.8085 8.228C98.0085 7.948 98.2925 7.728 98.6605 7.568C99.0285 7.4 99.4485 7.316 99.9205 7.316C100.649 7.316 101.237 7.5 101.685 7.868C102.133 8.236 102.373 8.74 102.405 9.38H101.313C101.289 9.036 101.149 8.76 100.893 8.552C100.645 8.344 100.309 8.24 99.8845 8.24C99.4925 8.24 99.1805 8.324 98.9485 8.492C98.7165 8.66 98.6005 8.88 98.6005 9.152C98.6005 9.368 98.6685 9.548 98.8045 9.692C98.9485 9.828 99.1245 9.94 99.3325 10.028C99.5485 10.108 99.8445 10.2 100.221 10.304C100.693 10.432 101.077 10.56 101.373 10.688C101.669 10.808 101.921 10.992 102.129 11.24C102.345 11.488 102.457 11.812 102.465 12.212C102.465 12.572 102.365 12.896 102.165 13.184C101.965 13.472 101.681 13.7 101.313 13.868C100.953 14.028 100.537 14.108 100.065 14.108ZM108.273 5.636V10.928C108.273 11.672 108.453 12.224 108.813 12.584C109.181 12.944 109.689 13.124 110.337 13.124C110.977 13.124 111.477 12.944 111.837 12.584C112.205 12.224 112.389 11.672 112.389 10.928V5.636H113.481V10.916C113.481 11.612 113.341 12.2 113.061 12.68C112.781 13.152 112.401 13.504 111.921 13.736C111.449 13.968 110.917 14.084 110.325 14.084C109.733 14.084 109.197 13.968 108.717 13.736C108.245 13.504 107.869 13.152 107.589 12.68C107.317 12.2 107.181 11.612 107.181 10.916V5.636H108.273ZM116.395 8.636C116.611 8.26 116.931 7.948 117.355 7.7C117.787 7.444 118.287 7.316 118.855 7.316C119.439 7.316 119.967 7.456 120.439 7.736C120.919 8.016 121.295 8.412 121.567 8.924C121.839 9.428 121.975 10.016 121.975 10.688C121.975 11.352 121.839 11.944 121.567 12.464C121.295 12.984 120.919 13.388 120.439 13.676C119.967 13.964 119.439 14.108 118.855 14.108C118.295 14.108 117.799 13.984 117.367 13.736C116.943 13.48 116.619 13.164 116.395 12.788V17.12H115.303V7.424H116.395V8.636ZM120.859 10.688C120.859 10.192 120.759 9.76 120.559 9.392C120.359 9.024 120.087 8.744 119.743 8.552C119.407 8.36 119.035 8.264 118.627 8.264C118.227 8.264 117.855 8.364 117.511 8.564C117.175 8.756 116.903 9.04 116.695 9.416C116.495 9.784 116.395 10.212 116.395 10.7C116.395 11.196 116.495 11.632 116.695 12.008C116.903 12.376 117.175 12.66 117.511 12.86C117.855 13.052 118.227 13.148 118.627 13.148C119.035 13.148 119.407 13.052 119.743 12.86C120.087 12.66 120.359 12.376 120.559 12.008C120.759 11.632 120.859 11.192 120.859 10.688ZM124.504 5.12V14H123.412V5.12H124.504ZM129.233 14.108C128.617 14.108 128.057 13.968 127.553 13.688C127.057 13.408 126.665 13.012 126.377 12.5C126.097 11.98 125.957 11.38 125.957 10.7C125.957 10.028 126.101 9.436 126.389 8.924C126.685 8.404 127.085 8.008 127.589 7.736C128.093 7.456 128.657 7.316 129.281 7.316C129.905 7.316 130.469 7.456 130.973 7.736C131.477 8.008 131.873 8.4 132.161 8.912C132.457 9.424 132.605 10.02 132.605 10.7C132.605 11.38 132.453 11.98 132.149 12.5C131.853 13.012 131.449 13.408 130.937 13.688C130.425 13.968 129.857 14.108 129.233 14.108ZM129.233 13.148C129.625 13.148 129.993 13.056 130.337 12.872C130.681 12.688 130.957 12.412 131.165 12.044C131.381 11.676 131.489 11.228 131.489 10.7C131.489 10.172 131.385 9.724 131.177 9.356C130.969 8.988 130.697 8.716 130.361 8.54C130.025 8.356 129.661 8.264 129.269 8.264C128.869 8.264 128.501 8.356 128.165 8.54C127.837 8.716 127.573 8.988 127.373 9.356C127.173 9.724 127.073 10.172 127.073 10.7C127.073 11.236 127.169 11.688 127.361 12.056C127.561 12.424 127.825 12.7 128.153 12.884C128.481 13.06 128.841 13.148 129.233 13.148ZM133.633 10.688C133.633 10.016 133.769 9.428 134.041 8.924C134.313 8.412 134.685 8.016 135.157 7.736C135.637 7.456 136.169 7.316 136.753 7.316C137.329 7.316 137.829 7.44 138.253 7.688C138.677 7.936 138.993 8.248 139.201 8.624V7.424H140.305V14H139.201V12.776C138.985 13.16 138.661 13.48 138.229 13.736C137.805 13.984 137.309 14.108 136.741 14.108C136.157 14.108 135.629 13.964 135.157 13.676C134.685 13.388 134.313 12.984 134.041 12.464C133.769 11.944 133.633 11.352 133.633 10.688ZM139.201 10.7C139.201 10.204 139.101 9.772 138.901 9.404C138.701 9.036 138.429 8.756 138.085 8.564C137.749 8.364 137.377 8.264 136.969 8.264C136.561 8.264 136.189 8.36 135.853 8.552C135.517 8.744 135.249 9.024 135.049 9.392C134.849 9.76 134.749 10.192 134.749 10.688C134.749 11.192 134.849 11.632 135.049 12.008C135.249 12.376 135.517 12.66 135.853 12.86C136.189 13.052 136.561 13.148 136.969 13.148C137.377 13.148 137.749 13.052 138.085 12.86C138.429 12.66 138.701 12.376 138.901 12.008C139.101 11.632 139.201 11.196 139.201 10.7ZM141.743 10.688C141.743 10.016 141.879 9.428 142.151 8.924C142.423 8.412 142.795 8.016 143.267 7.736C143.747 7.456 144.283 7.316 144.875 7.316C145.387 7.316 145.863 7.436 146.303 7.676C146.743 7.908 147.079 8.216 147.311 8.6V5.12H148.415V14H147.311V12.764C147.095 13.156 146.775 13.48 146.351 13.736C145.927 13.984 145.431 14.108 144.863 14.108C144.279 14.108 143.747 13.964 143.267 13.676C142.795 13.388 142.423 12.984 142.151 12.464C141.879 11.944 141.743 11.352 141.743 10.688ZM147.311 10.7C147.311 10.204 147.211 9.772 147.011 9.404C146.811 9.036 146.539 8.756 146.195 8.564C145.859 8.364 145.487 8.264 145.079 8.264C144.671 8.264 144.299 8.36 143.963 8.552C143.627 8.744 143.359 9.024 143.159 9.392C142.959 9.76 142.859 10.192 142.859 10.688C142.859 11.192 142.959 11.632 143.159 12.008C143.359 12.376 143.627 12.66 143.963 12.86C144.299 13.052 144.671 13.148 145.079 13.148C145.487 13.148 145.859 13.052 146.195 12.86C146.539 12.66 146.811 12.376 147.011 12.008C147.211 11.632 147.311 11.196 147.311 10.7ZM156.26 10.46C156.26 10.668 156.248 10.888 156.224 11.12H150.968C151.008 11.768 151.228 12.276 151.628 12.644C152.036 13.004 152.528 13.184 153.104 13.184C153.576 13.184 153.968 13.076 154.28 12.86C154.6 12.636 154.824 12.34 154.952 11.972H156.128C155.952 12.604 155.6 13.12 155.072 13.52C154.544 13.912 153.888 14.108 153.104 14.108C152.48 14.108 151.92 13.968 151.424 13.688C150.936 13.408 150.552 13.012 150.272 12.5C149.992 11.98 149.852 11.38 149.852 10.7C149.852 10.02 149.988 9.424 150.26 8.912C150.532 8.4 150.912 8.008 151.4 7.736C151.896 7.456 152.464 7.316 153.104 7.316C153.728 7.316 154.28 7.452 154.76 7.724C155.24 7.996 155.608 8.372 155.864 8.852C156.128 9.324 156.26 9.86 156.26 10.46ZM155.132 10.232C155.132 9.816 155.04 9.46 154.856 9.164C154.672 8.86 154.42 8.632 154.1 8.48C153.788 8.32 153.44 8.24 153.056 8.24C152.504 8.24 152.032 8.416 151.64 8.768C151.256 9.12 151.036 9.608 150.98 10.232H155.132ZM157.293 10.688C157.293 10.016 157.429 9.428 157.701 8.924C157.973 8.412 158.345 8.016 158.817 7.736C159.297 7.456 159.833 7.316 160.425 7.316C160.937 7.316 161.413 7.436 161.853 7.676C162.293 7.908 162.629 8.216 162.861 8.6V5.12H163.965V14H162.861V12.764C162.645 13.156 162.325 13.48 161.901 13.736C161.477 13.984 160.981 14.108 160.413 14.108C159.829 14.108 159.297 13.964 158.817 13.676C158.345 13.388 157.973 12.984 157.701 12.464C157.429 11.944 157.293 11.352 157.293 10.688ZM162.861 10.7C162.861 10.204 162.761 9.772 162.561 9.404C162.361 9.036 162.089 8.756 161.745 8.564C161.409 8.364 161.037 8.264 160.629 8.264C160.221 8.264 159.849 8.36 159.513 8.552C159.177 8.744 158.909 9.024 158.709 9.392C158.509 9.76 158.409 10.192 158.409 10.688C158.409 11.192 158.509 11.632 158.709 12.008C158.909 12.376 159.177 12.66 159.513 12.86C159.849 13.052 160.221 13.148 160.629 13.148C161.037 13.148 161.409 13.052 161.745 12.86C162.089 12.66 162.361 12.376 162.561 12.008C162.761 11.632 162.861 11.196 162.861 10.7Z" fill="#8491A5"/>
</svg>
