<svg width="181" height="20" viewBox="0 0 181 20" fill="none" xmlns="http://www.w3.org/2000/svg">
<path fill-rule="evenodd" clip-rule="evenodd" d="M9.9974 1.66602C5.39502 1.66602 1.66406 5.39697 1.66406 9.99935C1.66406 14.6017 5.39502 18.3327 9.9974 18.3327C14.5997 18.3327 18.3307 14.6017 18.3307 9.99935C18.3307 5.39697 14.5997 1.66602 9.9974 1.66602ZM7.08073 7.08268C7.08073 5.47185 8.38656 4.16602 9.9974 4.16602C11.6082 4.16602 12.9141 5.47185 12.9141 7.08268C12.9141 8.69352 11.6082 9.99935 9.9974 9.99935C8.38656 9.99935 7.08073 8.69352 7.08073 7.08268ZM4.3959 13.6157C5.76984 12.4925 7.77633 11.666 9.9974 11.666C12.2185 11.666 14.225 12.4925 15.5989 13.6157C14.4115 15.4513 12.3463 16.666 9.9974 16.666C7.64853 16.666 5.58338 15.4513 4.3959 13.6157Z" fill="#2AC570"/>
<path d="M34.072 5.636V6.524H31.792V14H30.7V6.524H28.408V5.636H34.072ZM38.2842 14.108C37.6682 14.108 37.1082 13.968 36.6042 13.688C36.1082 13.408 35.7162 13.012 35.4282 12.5C35.1482 11.98 35.0082 11.38 35.0082 10.7C35.0082 10.028 35.1522 9.436 35.4402 8.924C35.7362 8.404 36.1362 8.008 36.6402 7.736C37.1442 7.456 37.7082 7.316 38.3322 7.316C38.9562 7.316 39.5202 7.456 40.0242 7.736C40.5282 8.008 40.9242 8.4 41.2122 8.912C41.5082 9.424 41.6562 10.02 41.6562 10.7C41.6562 11.38 41.5042 11.98 41.2002 12.5C40.9042 13.012 40.5002 13.408 39.9882 13.688C39.4762 13.968 38.9082 14.108 38.2842 14.108ZM38.2842 13.148C38.6762 13.148 39.0442 13.056 39.3882 12.872C39.7322 12.688 40.0082 12.412 40.2162 12.044C40.4322 11.676 40.5402 11.228 40.5402 10.7C40.5402 10.172 40.4362 9.724 40.2282 9.356C40.0202 8.988 39.7482 8.716 39.4122 8.54C39.0762 8.356 38.7122 8.264 38.3202 8.264C37.9202 8.264 37.5522 8.356 37.2162 8.54C36.8882 8.716 36.6242 8.988 36.4242 9.356C36.2242 9.724 36.1242 10.172 36.1242 10.7C36.1242 11.236 36.2202 11.688 36.4122 12.056C36.6122 12.424 36.8762 12.7 37.2042 12.884C37.5322 13.06 37.8922 13.148 38.2842 13.148ZM44.424 8.324V12.2C44.424 12.52 44.492 12.748 44.628 12.884C44.764 13.012 45 13.076 45.336 13.076H46.14V14H45.156C44.548 14 44.092 13.86 43.788 13.58C43.484 13.3 43.332 12.84 43.332 12.2V8.324H42.48V7.424H43.332V5.768H44.424V7.424H46.14V8.324H44.424ZM47.0551 10.688C47.0551 10.016 47.1911 9.428 47.4631 8.924C47.7351 8.412 48.1071 8.016 48.5791 7.736C49.0591 7.456 49.5911 7.316 50.1751 7.316C50.7511 7.316 51.2511 7.44 51.6751 7.688C52.0991 7.936 52.4151 8.248 52.6231 8.624V7.424H53.7271V14H52.6231V12.776C52.4071 13.16 52.0831 13.48 51.6511 13.736C51.2271 13.984 50.7311 14.108 50.1631 14.108C49.5791 14.108 49.0511 13.964 48.5791 13.676C48.1071 13.388 47.7351 12.984 47.4631 12.464C47.1911 11.944 47.0551 11.352 47.0551 10.688ZM52.6231 10.7C52.6231 10.204 52.5231 9.772 52.3231 9.404C52.1231 9.036 51.8511 8.756 51.5071 8.564C51.1711 8.364 50.7991 8.264 50.3911 8.264C49.9831 8.264 49.6111 8.36 49.2751 8.552C48.9391 8.744 48.6711 9.024 48.4711 9.392C48.2711 9.76 48.1711 10.192 48.1711 10.688C48.1711 11.192 48.2711 11.632 48.4711 12.008C48.6711 12.376 48.9391 12.66 49.2751 12.86C49.6111 13.052 49.9831 13.148 50.3911 13.148C50.7991 13.148 51.1711 13.052 51.5071 12.86C51.8511 12.66 52.1231 12.376 52.3231 12.008C52.5231 11.632 52.6231 11.196 52.6231 10.7ZM56.6644 5.12V14H55.5724V5.12H56.6644ZM66.1288 14L64.1368 10.58H62.8168V14H61.7248V5.636H64.4248C65.0568 5.636 65.5888 5.744 66.0208 5.96C66.4608 6.176 66.7888 6.468 67.0048 6.836C67.2208 7.204 67.3288 7.624 67.3288 8.096C67.3288 8.672 67.1608 9.18 66.8248 9.62C66.4968 10.06 66.0008 10.352 65.3368 10.496L67.4368 14H66.1288ZM62.8168 9.704H64.4248C65.0168 9.704 65.4608 9.56 65.7568 9.272C66.0528 8.976 66.2008 8.584 66.2008 8.096C66.2008 7.6 66.0528 7.216 65.7568 6.944C65.4688 6.672 65.0248 6.536 64.4248 6.536H62.8168V9.704ZM75.0256 10.46C75.0256 10.668 75.0136 10.888 74.9896 11.12H69.7336C69.7736 11.768 69.9936 12.276 70.3936 12.644C70.8016 13.004 71.2936 13.184 71.8696 13.184C72.3416 13.184 72.7336 13.076 73.0456 12.86C73.3656 12.636 73.5896 12.34 73.7176 11.972H74.8936C74.7176 12.604 74.3656 13.12 73.8376 13.52C73.3096 13.912 72.6536 14.108 71.8696 14.108C71.2456 14.108 70.6856 13.968 70.1896 13.688C69.7016 13.408 69.3176 13.012 69.0376 12.5C68.7576 11.98 68.6176 11.38 68.6176 10.7C68.6176 10.02 68.7536 9.424 69.0256 8.912C69.2976 8.4 69.6776 8.008 70.1656 7.736C70.6616 7.456 71.2296 7.316 71.8696 7.316C72.4936 7.316 73.0456 7.452 73.5256 7.724C74.0056 7.996 74.3736 8.372 74.6296 8.852C74.8936 9.324 75.0256 9.86 75.0256 10.46ZM73.8976 10.232C73.8976 9.816 73.8056 9.46 73.6216 9.164C73.4376 8.86 73.1856 8.632 72.8656 8.48C72.5536 8.32 72.2056 8.24 71.8216 8.24C71.2696 8.24 70.7976 8.416 70.4056 8.768C70.0216 9.12 69.8016 9.608 69.7456 10.232H73.8976ZM79.179 7.316C79.747 7.316 80.243 7.44 80.667 7.688C81.099 7.936 81.419 8.248 81.627 8.624V7.424H82.731V14.144C82.731 14.744 82.603 15.276 82.347 15.74C82.091 16.212 81.723 16.58 81.243 16.844C80.771 17.108 80.219 17.24 79.587 17.24C78.723 17.24 78.003 17.036 77.427 16.628C76.851 16.22 76.511 15.664 76.407 14.96H77.487C77.607 15.36 77.855 15.68 78.231 15.92C78.607 16.168 79.059 16.292 79.587 16.292C80.187 16.292 80.675 16.104 81.051 15.728C81.435 15.352 81.627 14.824 81.627 14.144V12.764C81.411 13.148 81.091 13.468 80.667 13.724C80.243 13.98 79.747 14.108 79.179 14.108C78.595 14.108 78.063 13.964 77.583 13.676C77.111 13.388 76.739 12.984 76.467 12.464C76.195 11.944 76.059 11.352 76.059 10.688C76.059 10.016 76.195 9.428 76.467 8.924C76.739 8.412 77.111 8.016 77.583 7.736C78.063 7.456 78.595 7.316 79.179 7.316ZM81.627 10.7C81.627 10.204 81.527 9.772 81.327 9.404C81.127 9.036 80.855 8.756 80.511 8.564C80.175 8.364 79.803 8.264 79.395 8.264C78.987 8.264 78.615 8.36 78.279 8.552C77.943 8.744 77.675 9.024 77.475 9.392C77.275 9.76 77.175 10.192 77.175 10.688C77.175 11.192 77.275 11.632 77.475 12.008C77.675 12.376 77.943 12.66 78.279 12.86C78.615 13.052 78.987 13.148 79.395 13.148C79.803 13.148 80.175 13.052 80.511 12.86C80.855 12.66 81.127 12.376 81.327 12.008C81.527 11.632 81.627 11.196 81.627 10.7ZM85.1403 6.356C84.9323 6.356 84.7563 6.284 84.6123 6.14C84.4683 5.996 84.3963 5.82 84.3963 5.612C84.3963 5.404 84.4683 5.228 84.6123 5.084C84.7563 4.94 84.9323 4.868 85.1403 4.868C85.3403 4.868 85.5083 4.94 85.6443 5.084C85.7883 5.228 85.8603 5.404 85.8603 5.612C85.8603 5.82 85.7883 5.996 85.6443 6.14C85.5083 6.284 85.3403 6.356 85.1403 6.356ZM85.6683 7.424V14H84.5763V7.424H85.6683ZM89.8575 14.108C89.3535 14.108 88.9015 14.024 88.5015 13.856C88.1015 13.68 87.7855 13.44 87.5535 13.136C87.3215 12.824 87.1935 12.468 87.1695 12.068H88.2975C88.3295 12.396 88.4815 12.664 88.7535 12.872C89.0335 13.08 89.3975 13.184 89.8455 13.184C90.2615 13.184 90.5895 13.092 90.8295 12.908C91.0695 12.724 91.1895 12.492 91.1895 12.212C91.1895 11.924 91.0615 11.712 90.8055 11.576C90.5495 11.432 90.1535 11.292 89.6175 11.156C89.1295 11.028 88.7295 10.9 88.4175 10.772C88.1135 10.636 87.8495 10.44 87.6255 10.184C87.4095 9.92 87.3015 9.576 87.3015 9.152C87.3015 8.816 87.4015 8.508 87.6015 8.228C87.8015 7.948 88.0855 7.728 88.4535 7.568C88.8215 7.4 89.2415 7.316 89.7135 7.316C90.4415 7.316 91.0295 7.5 91.4775 7.868C91.9255 8.236 92.1655 8.74 92.1975 9.38H91.1055C91.0815 9.036 90.9415 8.76 90.6855 8.552C90.4375 8.344 90.1015 8.24 89.6775 8.24C89.2855 8.24 88.9735 8.324 88.7415 8.492C88.5095 8.66 88.3935 8.88 88.3935 9.152C88.3935 9.368 88.4615 9.548 88.5975 9.692C88.7415 9.828 88.9175 9.94 89.1255 10.028C89.3415 10.108 89.6375 10.2 90.0135 10.304C90.4855 10.432 90.8695 10.56 91.1655 10.688C91.4615 10.808 91.7135 10.992 91.9215 11.24C92.1375 11.488 92.2495 11.812 92.2575 12.212C92.2575 12.572 92.1575 12.896 91.9575 13.184C91.7575 13.472 91.4735 13.7 91.1055 13.868C90.7455 14.028 90.3295 14.108 89.8575 14.108ZM95.131 8.324V12.2C95.131 12.52 95.199 12.748 95.335 12.884C95.471 13.012 95.707 13.076 96.043 13.076H96.847V14H95.863C95.255 14 94.799 13.86 94.495 13.58C94.191 13.3 94.039 12.84 94.039 12.2V8.324H93.187V7.424H94.039V5.768H95.131V7.424H96.847V8.324H95.131ZM104.17 10.46C104.17 10.668 104.158 10.888 104.134 11.12H98.8781C98.9181 11.768 99.1381 12.276 99.5381 12.644C99.9461 13.004 100.438 13.184 101.014 13.184C101.486 13.184 101.878 13.076 102.19 12.86C102.51 12.636 102.734 12.34 102.862 11.972H104.038C103.862 12.604 103.51 13.12 102.982 13.52C102.454 13.912 101.798 14.108 101.014 14.108C100.39 14.108 99.8301 13.968 99.3341 13.688C98.8461 13.408 98.4621 13.012 98.1821 12.5C97.9021 11.98 97.7621 11.38 97.7621 10.7C97.7621 10.02 97.8981 9.424 98.1701 8.912C98.4421 8.4 98.8221 8.008 99.3101 7.736C99.8061 7.456 100.374 7.316 101.014 7.316C101.638 7.316 102.19 7.452 102.67 7.724C103.15 7.996 103.518 8.372 103.774 8.852C104.038 9.324 104.17 9.86 104.17 10.46ZM103.042 10.232C103.042 9.816 102.95 9.46 102.766 9.164C102.582 8.86 102.33 8.632 102.01 8.48C101.698 8.32 101.35 8.24 100.966 8.24C100.414 8.24 99.9421 8.416 99.5501 8.768C99.1661 9.12 98.9461 9.608 98.8901 10.232H103.042ZM106.704 8.492C106.896 8.116 107.168 7.824 107.52 7.616C107.88 7.408 108.316 7.304 108.828 7.304V8.432H108.54C107.316 8.432 106.704 9.096 106.704 10.424V14H105.612V7.424H106.704V8.492ZM116.088 10.46C116.088 10.668 116.076 10.888 116.052 11.12H110.796C110.836 11.768 111.056 12.276 111.456 12.644C111.864 13.004 112.356 13.184 112.932 13.184C113.404 13.184 113.796 13.076 114.108 12.86C114.428 12.636 114.652 12.34 114.78 11.972H115.956C115.78 12.604 115.428 13.12 114.9 13.52C114.372 13.912 113.716 14.108 112.932 14.108C112.308 14.108 111.748 13.968 111.252 13.688C110.764 13.408 110.38 13.012 110.1 12.5C109.82 11.98 109.68 11.38 109.68 10.7C109.68 10.02 109.816 9.424 110.088 8.912C110.36 8.4 110.74 8.008 111.228 7.736C111.724 7.456 112.292 7.316 112.932 7.316C113.556 7.316 114.108 7.452 114.588 7.724C115.068 7.996 115.436 8.372 115.692 8.852C115.956 9.324 116.088 9.86 116.088 10.46ZM114.96 10.232C114.96 9.816 114.868 9.46 114.684 9.164C114.5 8.86 114.248 8.632 113.928 8.48C113.616 8.32 113.268 8.24 112.884 8.24C112.332 8.24 111.86 8.416 111.468 8.768C111.084 9.12 110.864 9.608 110.808 10.232H114.96ZM117.121 10.688C117.121 10.016 117.257 9.428 117.529 8.924C117.801 8.412 118.173 8.016 118.645 7.736C119.125 7.456 119.661 7.316 120.253 7.316C120.765 7.316 121.241 7.436 121.681 7.676C122.121 7.908 122.457 8.216 122.689 8.6V5.12H123.793V14H122.689V12.764C122.473 13.156 122.153 13.48 121.729 13.736C121.305 13.984 120.809 14.108 120.241 14.108C119.657 14.108 119.125 13.964 118.645 13.676C118.173 13.388 117.801 12.984 117.529 12.464C117.257 11.944 117.121 11.352 117.121 10.688ZM122.689 10.7C122.689 10.204 122.589 9.772 122.389 9.404C122.189 9.036 121.917 8.756 121.573 8.564C121.237 8.364 120.865 8.264 120.457 8.264C120.049 8.264 119.677 8.36 119.341 8.552C119.005 8.744 118.737 9.024 118.537 9.392C118.337 9.76 118.237 10.192 118.237 10.688C118.237 11.192 118.337 11.632 118.537 12.008C118.737 12.376 119.005 12.66 119.341 12.86C119.677 13.052 120.049 13.148 120.457 13.148C120.865 13.148 121.237 13.052 121.573 12.86C121.917 12.66 122.189 12.376 122.389 12.008C122.589 11.632 122.689 11.196 122.689 10.7ZM131.49 14.084C130.938 14.084 130.442 13.988 130.002 13.796C129.57 13.596 129.23 13.324 128.982 12.98C128.734 12.628 128.606 12.224 128.598 11.768H129.762C129.802 12.16 129.962 12.492 130.242 12.764C130.53 13.028 130.946 13.16 131.49 13.16C132.01 13.16 132.418 13.032 132.714 12.776C133.018 12.512 133.17 12.176 133.17 11.768C133.17 11.448 133.082 11.188 132.906 10.988C132.73 10.788 132.51 10.636 132.246 10.532C131.982 10.428 131.626 10.316 131.178 10.196C130.626 10.052 130.182 9.908 129.846 9.764C129.518 9.62 129.234 9.396 128.994 9.092C128.762 8.78 128.646 8.364 128.646 7.844C128.646 7.388 128.762 6.984 128.994 6.632C129.226 6.28 129.55 6.008 129.966 5.816C130.39 5.624 130.874 5.528 131.418 5.528C132.202 5.528 132.842 5.724 133.338 6.116C133.842 6.508 134.126 7.028 134.19 7.676H132.99C132.95 7.356 132.782 7.076 132.486 6.836C132.19 6.588 131.798 6.464 131.31 6.464C130.854 6.464 130.482 6.584 130.194 6.824C129.906 7.056 129.762 7.384 129.762 7.808C129.762 8.112 129.846 8.36 130.014 8.552C130.19 8.744 130.402 8.892 130.65 8.996C130.906 9.092 131.262 9.204 131.718 9.332C132.27 9.484 132.714 9.636 133.05 9.788C133.386 9.932 133.674 10.16 133.914 10.472C134.154 10.776 134.274 11.192 134.274 11.72C134.274 12.128 134.166 12.512 133.95 12.872C133.734 13.232 133.414 13.524 132.99 13.748C132.566 13.972 132.066 14.084 131.49 14.084ZM137.213 8.324V12.2C137.213 12.52 137.281 12.748 137.417 12.884C137.553 13.012 137.789 13.076 138.125 13.076H138.929V14H137.945C137.337 14 136.881 13.86 136.577 13.58C136.273 13.3 136.121 12.84 136.121 12.2V8.324H135.269V7.424H136.121V5.768H137.213V7.424H138.929V8.324H137.213ZM146.084 7.424V14H144.992V13.028C144.784 13.364 144.492 13.628 144.116 13.82C143.748 14.004 143.34 14.096 142.892 14.096C142.38 14.096 141.92 13.992 141.512 13.784C141.104 13.568 140.78 13.248 140.54 12.824C140.308 12.4 140.192 11.884 140.192 11.276V7.424H141.272V11.132C141.272 11.78 141.436 12.28 141.764 12.632C142.092 12.976 142.54 13.148 143.108 13.148C143.692 13.148 144.152 12.968 144.488 12.608C144.824 12.248 144.992 11.724 144.992 11.036V7.424H146.084ZM147.52 10.688C147.52 10.016 147.656 9.428 147.928 8.924C148.2 8.412 148.572 8.016 149.044 7.736C149.524 7.456 150.06 7.316 150.652 7.316C151.164 7.316 151.64 7.436 152.08 7.676C152.52 7.908 152.856 8.216 153.088 8.6V5.12H154.192V14H153.088V12.764C152.872 13.156 152.552 13.48 152.128 13.736C151.704 13.984 151.208 14.108 150.64 14.108C150.056 14.108 149.524 13.964 149.044 13.676C148.572 13.388 148.2 12.984 147.928 12.464C147.656 11.944 147.52 11.352 147.52 10.688ZM153.088 10.7C153.088 10.204 152.988 9.772 152.788 9.404C152.588 9.036 152.316 8.756 151.972 8.564C151.636 8.364 151.264 8.264 150.856 8.264C150.448 8.264 150.076 8.36 149.74 8.552C149.404 8.744 149.136 9.024 148.936 9.392C148.736 9.76 148.636 10.192 148.636 10.688C148.636 11.192 148.736 11.632 148.936 12.008C149.136 12.376 149.404 12.66 149.74 12.86C150.076 13.052 150.448 13.148 150.856 13.148C151.264 13.148 151.636 13.052 151.972 12.86C152.316 12.66 152.588 12.376 152.788 12.008C152.988 11.632 153.088 11.196 153.088 10.7ZM162.037 10.46C162.037 10.668 162.025 10.888 162.001 11.12H156.745C156.785 11.768 157.005 12.276 157.405 12.644C157.813 13.004 158.305 13.184 158.881 13.184C159.353 13.184 159.745 13.076 160.057 12.86C160.377 12.636 160.601 12.34 160.729 11.972H161.905C161.729 12.604 161.377 13.12 160.849 13.52C160.321 13.912 159.665 14.108 158.881 14.108C158.257 14.108 157.697 13.968 157.201 13.688C156.713 13.408 156.329 13.012 156.049 12.5C155.769 11.98 155.629 11.38 155.629 10.7C155.629 10.02 155.765 9.424 156.037 8.912C156.309 8.4 156.689 8.008 157.177 7.736C157.673 7.456 158.241 7.316 158.881 7.316C159.505 7.316 160.057 7.452 160.537 7.724C161.017 7.996 161.385 8.372 161.641 8.852C161.905 9.324 162.037 9.86 162.037 10.46ZM160.909 10.232C160.909 9.816 160.817 9.46 160.633 9.164C160.449 8.86 160.197 8.632 159.877 8.48C159.565 8.32 159.217 8.24 158.833 8.24C158.281 8.24 157.809 8.416 157.417 8.768C157.033 9.12 156.813 9.608 156.757 10.232H160.909ZM166.683 7.304C167.483 7.304 168.131 7.548 168.627 8.036C169.123 8.516 169.371 9.212 169.371 10.124V14H168.291V10.28C168.291 9.624 168.127 9.124 167.799 8.78C167.471 8.428 167.023 8.252 166.455 8.252C165.879 8.252 165.419 8.432 165.075 8.792C164.739 9.152 164.571 9.676 164.571 10.364V14H163.479V7.424H164.571V8.36C164.787 8.024 165.079 7.764 165.447 7.58C165.823 7.396 166.235 7.304 166.683 7.304ZM172.486 8.324V12.2C172.486 12.52 172.554 12.748 172.69 12.884C172.826 13.012 173.062 13.076 173.398 13.076H174.202V14H173.218C172.61 14 172.154 13.86 171.85 13.58C171.546 13.3 171.394 12.84 171.394 12.2V8.324H170.542V7.424H171.394V5.768H172.486V7.424H174.202V8.324H172.486ZM177.854 14.108C177.35 14.108 176.898 14.024 176.498 13.856C176.098 13.68 175.782 13.44 175.55 13.136C175.318 12.824 175.19 12.468 175.166 12.068H176.294C176.326 12.396 176.478 12.664 176.75 12.872C177.03 13.08 177.394 13.184 177.842 13.184C178.258 13.184 178.586 13.092 178.826 12.908C179.066 12.724 179.186 12.492 179.186 12.212C179.186 11.924 179.058 11.712 178.802 11.576C178.546 11.432 178.15 11.292 177.614 11.156C177.126 11.028 176.726 10.9 176.414 10.772C176.11 10.636 175.846 10.44 175.622 10.184C175.406 9.92 175.298 9.576 175.298 9.152C175.298 8.816 175.398 8.508 175.598 8.228C175.798 7.948 176.082 7.728 176.45 7.568C176.818 7.4 177.238 7.316 177.71 7.316C178.438 7.316 179.026 7.5 179.474 7.868C179.922 8.236 180.162 8.74 180.194 9.38H179.102C179.078 9.036 178.938 8.76 178.682 8.552C178.434 8.344 178.098 8.24 177.674 8.24C177.282 8.24 176.97 8.324 176.738 8.492C176.506 8.66 176.39 8.88 176.39 9.152C176.39 9.368 176.458 9.548 176.594 9.692C176.738 9.828 176.914 9.94 177.122 10.028C177.338 10.108 177.634 10.2 178.01 10.304C178.482 10.432 178.866 10.56 179.162 10.688C179.458 10.808 179.71 10.992 179.918 11.24C180.134 11.488 180.246 11.812 180.254 12.212C180.254 12.572 180.154 12.896 179.954 13.184C179.754 13.472 179.47 13.7 179.102 13.868C178.742 14.028 178.326 14.108 177.854 14.108Z" fill="#8491A5"/>
</svg>
